# xmcd
#
# Track frame offsets: 
#        150
#        41840
#        68570
#        87925
#        111097
#        128900
#        161242
#        180317
#        201677
#
# Disc length: 3468 seconds
#
# Revision: 2
# Processed by: cddbd v1.5.2PL0 Copyright (c) Steve Scherf et al.
# Submitted via: ExactAudioCopy v0.99pb5
#
DISCID=7e0d8a09
DTITLE=The Hall Of Souls - Exit
DYEAR=1996
DGENRE=Darkwave
TTITLE0=Exit
TTITLE1=The Sea
TTITLE2=On The Idle Hill Of Summer
TTITLE3=Until The Day...
TTITLE4=Obscured
TTITLE5=Rise And Fall
TTITLE6=Her
TTITLE7=Five Million Words
TTITLE8=Play
EXTD=
EXTT0=
EXTT1=
EXTT2=
EXTT3=
EXTT4=
EXTT5=
EXTT6=
EXTT7=
EXTT8=
PLAYORDER=
